HIERARCHY
ROOT Hips
{
	OFFSET -0.001795 -0.223333 0.028219
	CHANNELS 6 Xposition Yposition Zposition Zrotation Yrotation Xrotation 
	JOINT LeftUpLeg
	{
		OFFSET 0.069520 -0.091406 -0.006815
		CHANNELS 3 Zrotation Yrotation Xrotation
		JOINT LeftLeg
		{
			OFFSET 0.034277 -0.375199 -0.004496
			CHANNELS 3 Zrotation Yrotation Xrotation
			JOINT LeftFoot
			{
				OFFSET -0.013596 -0.397961 -0.043693
				CHANNELS 3 Zrotation Yrotation Xrotation
				JOINT LeftToe
				{
					OFFSET 0.026358 -0.055791 0.119288
					CHANNELS 3 Zrotation Yrotation Xrotation
					End Site
					{
						OFFSET 0.000000 0.000000 0.000000
					}
				}
			}
		}
	}
	JOINT RightUpLeg
	{
		OFFSET -0.067670 -0.090522 -0.004320
		CHANNELS 3 Zrotation Yrotation Xrotation
		JOINT RightLeg
		{
			OFFSET -0.038290 -0.382569 -0.008850
			CHANNELS 3 Zrotation Yrotation Xrotation
			JOINT RightFoot
			{
				OFFSET 0.015774 -0.398415 -0.042312
				CHANNELS 3 Zrotation Yrotation Xrotation
				JOINT RightToe
				{
					OFFSET -0.025372 -0.048144 0.123348
					CHANNELS 3 Zrotation Yrotation Xrotation
					End Site
					{
						OFFSET 0.000000 0.000000 0.000000
					}
				}
			}
		}
	}
	JOINT Spine
	{
		OFFSET -0.002533 0.108963 -0.026696
		CHANNELS 3 Zrotation Yrotation Xrotation
		JOINT Spine1
		{
			OFFSET 0.005487 0.135180 0.001092
			CHANNELS 3 Zrotation Yrotation Xrotation
			JOINT Spine2
			{
				OFFSET 0.001457 0.052922 0.025425
				CHANNELS 3 Zrotation Yrotation Xrotation
				JOINT Neck
				{
					OFFSET -0.002778 0.213870 -0.042857
					CHANNELS 3 Zrotation Yrotation Xrotation
					JOINT Head
					{
						OFFSET 0.005152 0.064970 0.051349
						CHANNELS 3 Zrotation Yrotation Xrotation
						End Site
						{
							OFFSET 0.000000 0.000000 0.000000
						}
					}
				}
				JOINT LeftShoulder
				{
					OFFSET 0.078845 0.121749 -0.034090
					CHANNELS 3 Zrotation Yrotation Xrotation
					JOINT LeftArm
					{
						OFFSET 0.090977 0.030469 -0.008868
						CHANNELS 3 Zrotation Yrotation Xrotation
						JOINT LeftForeArm
						{
							OFFSET 0.259612 -0.012772 -0.027456
							CHANNELS 3 Zrotation Yrotation Xrotation
							JOINT LeftHand
							{
								OFFSET 0.249234 0.008986 -0.001171
								CHANNELS 3 Zrotation Yrotation Xrotation
								End Site
								{
									OFFSET 0.000000 0.000000 0.000000
								}
							}
						}
					}
				}
				JOINT RightShoulder
				{
					OFFSET -0.081759 0.118833 -0.038615
					CHANNELS 3 Zrotation Yrotation Xrotation
					JOINT RightArm
					{
						OFFSET -0.096012 0.032551 -0.009143
						CHANNELS 3 Zrotation Yrotation Xrotation
						JOINT RightForeArm
						{
							OFFSET -0.253742 -0.013329 -0.021401
							CHANNELS 3 Zrotation Yrotation Xrotation
							JOINT RightHand
							{
								OFFSET -0.255298 0.007772 -0.005559
								CHANNELS 3 Zrotation Yrotation Xrotation
								End Site
								{
									OFFSET 0.000000 0.000000 0.000000
								}
							}
						}
					}
				}
			}
		}
	}
}
MOTION
Frames: 11
Frame Time: 0.050000
-1.437553 0.928116 1.148018 -8.729988 55.031069 -4.739677 -5.240574 0.347168 5.171261 6.673721 -0.799062 4.063104 -2.165206 -6.275271 -1.086964 0.000000 0.000000 0.000000 4.306914 -0.032857 -24.668740 7.004082 -4.926769 16.625667 -35.766074 -36.339009 52.538768 0.000000 0.000000 0.000000 2.652352 -0.724885 7.637625 0.861352 -1.625926 3.062387 -2.888725 10.530496 1.500566 8.291674 0.280048 -16.991532 0.000000 0.000000 0.000000 -12.715238 -20.250765 -0.852340 -31.145555 -9.593651 1.513029 122.428883 -61.518957 -109.011174 0.000000 0.000000 0.000000 8.662363 16.515640 13.116399 28.638819 26.316618 2.244562 -84.885744 46.680990 -26.754665 0.000000 0.000000 0.000000 
-1.400683 0.932638 1.167649 -7.532176 59.577300 -2.943310 -7.026254 0.404491 6.408309 8.821935 -1.092109 4.404996 -5.373312 -7.430353 2.627598 0.000000 0.000000 0.000000 6.526147 -0.031330 -25.738111 4.061253 -2.632210 11.268424 -6.263120 -6.228627 28.596023 0.000000 0.000000 0.000000 2.523024 -0.506677 5.892693 1.889297 -2.574922 3.744273 -4.706049 11.284322 -0.067853 9.472798 -0.928206 -14.894706 0.000000 0.000000 0.000000 -11.886543 -20.983184 -1.014354 -31.411423 -10.382064 1.851674 120.622387 -64.928907 -112.071208 0.000000 0.000000 0.000000 10.814737 15.832606 14.686609 25.290512 28.099204 1.857627 -79.140737 45.632165 -23.530495 0.000000 0.000000 0.000000 
-1.359404 0.934136 1.187456 -6.284399 64.945581 -2.437936 -6.858991 0.250587 7.275239 8.226291 -1.759658 8.605854 -8.258612 -8.575834 5.564440 0.000000 0.000000 0.000000 7.321790 -0.035855 -24.250759 0.061588 -1.610327 11.836002 0.222873 2.991161 18.373148 0.000000 0.000000 0.000000 3.034137 -0.414224 4.688180 1.614143 -3.613303 6.083512 -4.896337 11.264036 -2.620850 8.079810 -0.099140 -14.737401 0.000000 0.000000 0.000000 -10.265376 -21.760951 -0.343040 -33.447941 -13.299185 2.354287 113.228207 -64.793094 -105.000957 0.000000 0.000000 0.000000 10.710929 15.919638 15.157178 23.215772 29.016014 1.756918 -72.595684 42.532347 -18.701785 0.000000 0.000000 0.000000 
-1.316064 0.935653 1.206721 -4.776613 70.275190 -1.905446 -4.496512 0.134595 3.458761 3.514275 -4.285607 20.452640 -12.146440 -6.396556 12.692153 0.000000 0.000000 0.000000 6.049760 -0.412480 -22.339584 -1.328342 -2.404402 15.642256 -1.852032 -0.442814 13.730130 0.000000 0.000000 0.000000 3.623637 -0.387812 3.998412 2.607521 -4.334481 5.621359 -6.703572 11.341349 -3.360826 7.991105 -0.715986 -12.688849 0.000000 0.000000 0.000000 -10.377207 -22.708429 -0.688944 -32.275379 -15.473347 2.913071 106.500455 -65.523420 -98.692399 0.000000 0.000000 0.000000 14.307134 15.228148 17.636690 18.887124 29.027871 0.575040 -69.293683 41.723678 -17.994996 0.000000 0.000000 0.000000 
-1.275369 0.934511 1.224631 -4.594124 74.804755 -3.576437 -1.072257 -0.176255 -2.742676 -7.241922 -8.894052 37.504692 -10.895506 2.993570 22.514127 0.000000 0.000000 0.000000 5.117221 -0.322986 -18.868985 -1.443892 -3.847193 18.550239 -3.269864 -4.053009 9.793352 0.000000 0.000000 0.000000 4.949316 -0.553645 4.468601 1.518913 -4.428632 6.303037 -6.486263 12.102665 -3.795028 7.686916 -1.599149 -9.866410 0.000000 0.000000 0.000000 -12.415104 -24.982227 -1.440442 -32.544356 -14.940877 3.273426 109.072089 -65.605814 -101.537187 0.000000 0.000000 0.000000 18.848964 15.825760 21.542128 12.017529 28.248692 -0.980657 -66.666946 38.959931 -17.420516 0.000000 0.000000 0.000000 
-1.238876 0.932779 1.239885 -6.361180 78.316716 -7.298264 1.223302 -1.032247 -10.592033 -20.548024 -11.215082 51.584466 -4.341385 13.417587 36.920874 0.000000 0.000000 0.000000 5.418310 0.318678 -13.727387 -1.468313 -4.333416 18.212038 -4.481494 -8.350255 6.703410 0.000000 0.000000 0.000000 5.248839 -0.843195 6.470909 1.511182 -3.871029 4.662786 -5.944201 13.676106 -2.809505 8.027811 -1.712727 -9.739676 0.000000 0.000000 0.000000 -13.568501 -27.210946 -2.462336 -33.680182 -15.226826 3.840106 110.446253 -66.276607 -105.119232 0.000000 0.000000 0.000000 20.860542 14.805494 23.368141 8.407365 28.359554 -1.628191 -64.937961 37.209818 -16.734465 0.000000 0.000000 0.000000 
-1.203534 0.932092 1.252883 -5.316534 79.687059 -7.803589 2.608439 -2.252542 -16.494865 -16.971290 -10.742979 46.183565 -9.712135 8.426941 75.502544 0.000000 0.000000 0.000000 5.059404 0.527932 -9.536600 -0.861328 -4.991970 18.297634 -4.363390 -10.251301 4.401674 0.000000 0.000000 0.000000 4.838734 -1.032876 7.989579 2.725264 -4.631441 4.856882 -6.457725 15.972476 -2.891936 8.605572 -1.875117 -10.272910 0.000000 0.000000 0.000000 -14.786054 -28.395305 -3.594876 -34.501757 -13.703019 4.057513 115.089026 -65.647476 -110.171755 0.000000 0.000000 0.000000 20.803711 15.570745 24.714879 8.901569 29.967842 -1.479337 -68.001330 36.762251 -17.504598 0.000000 0.000000 0.000000 
-1.167471 0.933966 1.263897 -4.725512 80.181591 -8.296714 2.941985 -3.161752 -19.827109 -1.036834 -4.240742 21.106966 -83.584091 -6.716182 150.624404 0.000000 0.000000 0.000000 5.358622 0.599561 -5.440956 -0.863698 -4.823908 17.529532 -4.385064 -11.416462 3.837767 0.000000 0.000000 0.000000 5.003560 -1.195168 8.723668 2.296843 -4.152918 4.377212 -5.190874 16.669807 -2.568987 7.215536 -0.726234 -10.731589 0.000000 0.000000 0.000000 -16.294993 -29.717885 -4.397916 -35.498428 -10.453399 3.893893 120.156154 -65.271062 -116.105172 0.000000 0.000000 0.000000 20.790105 15.481241 24.873014 9.758431 31.678120 -1.300260 -68.487289 37.973272 -18.290515 0.000000 0.000000 0.000000 
-1.129902 0.934639 1.272834 -1.364148 78.459649 -5.006691 4.352460 -3.482317 -20.968453 2.615460 -0.300878 -1.847255 -123.169150 9.937024 159.268817 0.000000 0.000000 0.000000 5.111960 0.406463 -2.493817 -1.294988 -4.205928 16.810274 -3.566075 -10.566730 2.870846 0.000000 0.000000 0.000000 4.873434 -1.067457 8.194469 1.542019 -3.836305 4.677629 -4.501364 17.826358 -2.097249 7.042161 -0.579350 -10.752987 0.000000 0.000000 0.000000 -15.911231 -28.808494 -4.614409 -36.073745 -9.225293 3.471742 122.795133 -64.904056 -119.126791 0.000000 0.000000 0.000000 20.171470 16.282683 25.010204 11.574739 33.217401 -0.798077 -69.123548 39.134695 -19.000809 0.000000 0.000000 0.000000 
-1.091047 0.932702 1.280084 -0.293915 76.084018 -3.857884 4.868242 -3.541693 -21.308194 5.159433 -1.102066 -12.472617 -84.787566 -6.819536 155.964930 0.000000 0.000000 0.000000 4.856783 0.058918 0.425863 -1.784111 -3.449443 15.967908 -2.484597 -9.172003 1.538186 0.000000 0.000000 0.000000 5.062186 -0.965668 7.509546 0.476209 -3.013811 4.315131 -3.339578 18.377053 -0.513191 5.746091 0.537999 -11.270521 0.000000 0.000000 0.000000 -15.845916 -27.796322 -4.995074 -35.590382 -7.886112 3.025902 126.360560 -64.546926 -122.816065 0.000000 0.000000 0.000000 19.042959 17.304112 24.797439 11.836358 34.023762 -0.509396 -69.959279 38.922205 -18.949442 0.000000 0.000000 0.000000 
-1.050913 0.927592 1.285920 -0.999396 72.232302 -4.302836 5.913037 -3.393986 -21.048328 7.940979 -1.558052 -16.929968 -37.618090 -11.889383 110.335896 0.000000 0.000000 0.000000 4.986566 -0.392967 3.252254 -3.207016 -2.245313 15.028634 -0.973350 -6.745783 -0.421368 0.000000 0.000000 0.000000 5.095152 -0.857477 6.835241 -0.237653 -2.100693 3.439983 -1.742632 19.229264 1.482931 5.236823 1.409174 -12.239259 0.000000 0.000000 0.000000 -15.783729 -28.474956 -4.664060 -34.998303 -6.055275 2.659124 125.985984 -63.151731 -121.351261 0.000000 0.000000 0.000000 17.936375 17.456199 23.933660 11.005182 35.306328 -0.440504 -70.191370 38.724793 -18.511835 0.000000 0.000000 0.000000 
